<svg width="1250" height="35" viewBox="0 0 1250 35" fill="none" xmlns="http://www.w3.org/2000/svg">
<path d="M1218.8 0.157043C1203.15 0.157043 1203.15 14.157 1187.61 14.157C1172.07 14.157 1171.96 0.157043 1156.41 0.157043C1140.87 0.157043 1140.76 14.157 1125.22 14.157C1109.57 14.157 1109.57 0.157043 1093.91 0.157043C1078.26 0.157043 1078.26 14.157 1062.72 14.157C1047.07 14.157 1047.07 0.157043 1031.52 0.157043C1015.87 0.157043 1015.87 14.157 1000.33 14.157C984.783 14.157 984.348 0.157043 968.804 0.157043C953.152 0.157043 953.152 14.157 937.609 14.157C922.065 14.157 921.848 0.157043 906.304 0.157043C890.652 0.157043 890.652 14.157 875.109 14.157C859.456 14.157 859.456 0.157043 843.804 0.157043C828.152 0.157043 828.152 14.157 812.609 14.157C796.956 14.157 796.957 0.157043 781.413 0.157043C765.87 0.157043 765.652 14.157 750 14.157C734.348 14.157 734.348 0.157043 718.804 0.157043C703.152 0.157043 703.152 14.157 687.609 14.157C671.956 14.157 671.956 0.157043 656.304 0.157043C640.652 0.157043 640.652 14.157 625.109 14.157C609.456 14.157 609.457 0.157043 593.913 0.157043C578.261 0.157043 578.261 14.157 562.717 14.157C547.065 14.157 547.065 0.157043 531.522 0.157043C515.87 0.157043 515.87 14.157 500.217 14.157C484.565 14.157 484.565 0.157043 468.913 0.157043C453.261 0.157043 453.261 14.157 437.609 14.157C421.957 14.157 421.957 0.157043 406.304 0.157043C390.652 0.157043 390.652 14.157 375 14.157C359.348 14.157 359.348 0.157043 343.696 0.157043C328.043 0.157043 328.043 14.157 312.391 14.157C296.739 14.157 296.739 0.157043 281.087 0.157043C265.435 0.157043 265.435 14.157 249.891 14.157C234.239 14.157 234.239 0.157043 218.587 0.157043C202.935 0.157043 202.935 14.157 187.283 14.157C171.63 14.157 171.63 0.157043 155.978 0.157043C140.326 0.157043 140.326 14.157 124.674 14.157C109.022 14.157 109.022 0.157043 93.3696 0.157043C78.1522 0.157043 78.1522 14.157 62.5 14.157C46.8478 14.157 46.8478 0.157043 31.3043 0.157043C15.7609 0.157043 15.6522 14.157 0 14.157V34.157H1250V14.157C1234.35 14.157 1234.35 0.157043 1218.8 0.157043Z" fill="white"/>
</svg>
